<?xml version="1.0" encoding="UTF-8"?>
<svg id="Layer_1" xmlns="http://www.w3.org/2000/svg" version="1.1" xmlns:xlink="http://www.w3.org/1999/xlink" viewBox="0 0 1344.13 1445.78">
  <!-- Generator: Adobe Illustrator 30.6.0, SVG Export Plug-In . SVG Version: 2.1.4 Build 109)  -->
  <defs>
    <style>
      .st0 {
        fill: url(#linear-gradient2);
      }

      .st1 {
        filter: url(#drop-shadow-2);
      }

      .st2 {
        fill: #2d307d;
      }

      .st3 {
        fill: url(#linear-gradient1);
      }

      .st4 {
        fill: #7f8bf7;
      }

      .st5 {
        fill: #1a1a24;
      }

      .st6 {
        fill: #322b74;
      }

      .st7 {
        filter: url(#drop-shadow-1);
      }

      .st8 {
        fill: #3c3e54;
      }

      .st9 {
        fill: url(#linear-gradient3);
      }

      .st10 {
        fill: url(#linear-gradient);
      }
    </style>
    <linearGradient id="linear-gradient" x1="139.7" y1="1259.24" x2="471.6" y2="415.41" gradientUnits="userSpaceOnUse">
      <stop offset="0" stop-color="#252734"/>
      <stop offset=".46" stop-color="#1a1a24"/>
      <stop offset="1" stop-color="#3c3e54"/>
    </linearGradient>
    <filter id="drop-shadow-1" x="111.36" y="162.38" width="911" height="1246" filterUnits="userSpaceOnUse">
      <feOffset dx="-11.34" dy="17.01"/>
      <feGaussianBlur result="blur" stdDeviation="8.5"/>
      <feFlood flood-color="#000" flood-opacity=".3"/>
      <feComposite in2="blur" operator="in"/>
      <feComposite in="SourceGraphic"/>
    </filter>
    <linearGradient id="linear-gradient1" x1="453.54" y1="223.26" x2="695.68" y2="1319.52" gradientUnits="userSpaceOnUse">
      <stop offset="0" stop-color="#88d0fc"/>
      <stop offset="1" stop-color="#6a40e9"/>
    </linearGradient>
    <linearGradient id="linear-gradient2" x1="342.69" y1="1334.24" x2="753.75" y2="289.13" gradientUnits="userSpaceOnUse">
      <stop offset="0" stop-color="#4026b2"/>
      <stop offset=".46" stop-color="#3d37c1"/>
      <stop offset="1" stop-color="#3799f8"/>
    </linearGradient>
    <filter id="drop-shadow-2" x="266.36" y="-8.62" width="1092" height="1497" filterUnits="userSpaceOnUse">
      <feOffset dx="-11.34" dy="17.01"/>
      <feGaussianBlur result="blur1" stdDeviation="8.5"/>
      <feFlood flood-color="#000" flood-opacity=".3"/>
      <feComposite in2="blur1" operator="in"/>
      <feComposite in="SourceGraphic"/>
    </filter>
    <linearGradient id="linear-gradient3" x1="539.17" y1="1407.7" x2="1036.66" y2="142.82" gradientUnits="userSpaceOnUse">
      <stop offset="0" stop-color="#3f24ad"/>
      <stop offset=".46" stop-color="#5e5eaa"/>
      <stop offset="1" stop-color="#7560aa"/>
    </linearGradient>
  </defs>
  <g>
    <path class="st5" d="M659.29,1180.81c-39.8-248.57-79.6-497.15-119.4-745.72-3.2-19.98-19.52-35.88-40.71-39.68L60.4,316.79c-34.17-6.13-64.68,20.97-59.91,53.24,43.17,292.36,86.35,584.72,129.52,877.08,3.82,25.91,29.28,44.07,56.98,40.65,142.88-17.57,285.77-35.16,428.65-52.74,28.18-3.46,47.85-27.9,43.64-54.23ZM641.12,1210.51c-6.55,8.13-16.09,13.34-26.87,14.66l-428.65,52.74c-1.76.22-3.55.33-5.3.33h-.01c-19.94,0-37.04-13.97-39.77-32.49L11.01,368.67c-1.61-10.94,1.75-21.54,9.47-29.84,7.68-8.24,18.69-12.98,30.2-12.98,2.56,0,5.16.23,7.72.7l438.78,78.61c16.74,3,29.68,15.61,32.2,31.39l119.4,745.73c1.61,10.07-1.11,20.09-7.66,28.22Z"/>
    <path class="st8" d="M648.78,1182.29l-119.4-745.73c-2.52-15.78-15.46-28.39-32.2-31.39L58.4,326.55c-2.56-.47-5.16-.7-7.72-.7-11.52,0-22.52,4.74-30.2,12.98-7.72,8.3-11.08,18.89-9.47,29.84l129.52,877.08c2.74,18.52,19.84,32.49,39.77,32.49h.01c1.75,0,3.53-.11,5.3-.33l428.65-52.74c10.78-1.32,20.32-6.54,26.87-14.66,6.55-8.14,9.27-18.16,7.66-28.22ZM629.81,1202.54c-4.23,5.26-10.42,8.64-17.39,9.49l-428.66,52.74c-1.14.14-2.29.21-3.45.21h-.01c-12.9,0-23.97-9.05-25.74-21.04L25.04,366.85c-1.06-7.19,1.06-13.88,6.12-19.33,4.98-5.34,12.1-8.42,19.52-8.42,1.66,0,3.35.15,5.01.46l438.83,78.63c10.84,1.94,19.22,10.11,20.86,20.33l119.4,745.73c1.04,6.51-.72,13.01-4.97,18.29Z"/>
    <path class="st10" d="M629.81,1202.54c-4.23,5.26-10.42,8.64-17.39,9.49l-428.66,52.74c-1.14.14-2.29.21-3.45.21h-.01c-12.9,0-23.97-9.05-25.74-21.04L25.04,366.85c-1.06-7.19,1.06-13.88,6.12-19.33,4.98-5.34,12.1-8.42,19.52-8.42,1.66,0,3.35.15,5.01.46l438.83,78.63c10.84,1.94,19.22,10.11,20.86,20.33l119.4,745.73c1.04,6.51-.72,13.01-4.97,18.29Z"/>
  </g>
  <g class="st7">
    <path class="st3" d="M1007.06,1233.77c-51.84-305.41-103.69-610.82-155.53-916.23-4.17-24.55-25.43-44.09-53.03-48.75L226.93,172.19c-44.52-7.53-84.25,25.77-78.04,65.42,56.23,359.21,112.48,718.41,168.71,1077.64,4.98,31.83,38.14,54.14,74.23,49.95,186.12-21.59,372.25-43.2,558.37-64.8,36.71-4.25,62.33-34.27,56.85-66.62ZM983.4,1270.27c-8.53,9.98-20.96,16.39-35,18.01l-558.37,64.8c-2.29.27-4.62.4-6.9.4h-.02c-25.97,0-48.24-17.17-51.81-39.92L162.6,235.93c-2.1-13.45,2.28-26.46,12.33-36.66,10.01-10.13,24.34-15.95,39.34-15.95,3.34,0,6.72.29,10.06.86l571.57,96.59c21.8,3.69,38.66,19.18,41.95,38.57l155.53,916.25c2.1,12.37-1.45,24.68-9.97,34.68Z"/>
    <path class="st2" d="M993.37,1235.59l-155.53-916.25c-3.29-19.39-20.14-34.88-41.95-38.57L224.33,184.19c-3.34-.57-6.72-.86-10.06-.86-15,0-29.34,5.82-39.34,15.95-10.06,10.2-14.43,23.21-12.33,36.66l168.71,1077.64c3.56,22.75,25.84,39.92,51.81,39.92h.02c2.28,0,4.6-.13,6.9-.4l558.37-64.8c14.04-1.62,26.47-8.03,35-18.01,8.53-10,12.07-22.31,9.97-34.68ZM968.66,1260.47c-5.52,6.46-13.57,10.62-22.65,11.66l-558.39,64.8c-1.48.17-2.98.26-4.49.26h-.02c-16.81,0-31.22-11.12-33.53-25.86L180.87,233.7c-1.38-8.83,1.38-17.05,7.97-23.75,6.49-6.56,15.77-10.34,25.43-10.34,2.16,0,4.36.19,6.52.56l571.63,96.6c14.12,2.38,25.04,12.43,27.17,24.98l155.53,916.25c1.35,8-.94,15.99-6.48,22.47Z"/>
    <path class="st0" d="M968.66,1260.47c-5.52,6.46-13.57,10.62-22.65,11.66l-558.39,64.8c-1.48.17-2.98.26-4.49.26h-.02c-16.81,0-31.22-11.12-33.53-25.86L180.87,233.7c-1.38-8.83,1.38-17.05,7.97-23.75,6.49-6.56,15.77-10.34,25.43-10.34,2.16,0,4.36.19,6.52.56l571.63,96.6c14.12,2.38,25.04,12.43,27.17,24.98l155.53,916.25c1.35,8-.94,15.99-6.48,22.47Z"/>
  </g>
  <g class="st1">
    <path class="st6" d="M1343.24,1286.1c-62.74-369.63-125.5-739.27-188.24-1108.9-5.04-29.71-30.78-53.36-64.18-59.01L399.06,1.29c-53.88-9.11-101.97,31.19-94.45,79.17,68.06,434.74,136.13,869.49,204.19,1304.25,6.03,38.53,46.16,65.53,89.84,60.45,225.26-26.13,450.52-52.28,675.79-78.43,44.43-5.15,75.44-41.48,68.81-80.63ZM1314.6,1330.28c-10.32,12.08-25.36,19.84-42.36,21.8l-675.79,78.43c-2.78.33-5.59.49-8.35.49h-.02c-31.43,0-58.39-20.78-62.7-48.31L321.2,78.43c-2.54-16.27,2.76-32.02,14.93-44.37,12.11-12.26,29.46-19.3,47.62-19.3,4.04,0,8.13.35,12.17,1.04l691.76,116.9c26.39,4.47,46.79,23.21,50.77,46.68l188.24,1108.92c2.54,14.97-1.75,29.87-12.07,41.97Z"/>
    <path class="st4" d="M1326.68,1288.31l-188.24-1108.92c-3.98-23.47-24.38-42.21-50.77-46.68L395.91,15.81c-4.04-.7-8.13-1.04-12.17-1.04-18.16,0-35.51,7.04-47.62,19.3-12.17,12.34-17.47,28.1-14.93,44.37l204.19,1304.25c4.31,27.54,31.27,48.31,62.7,48.31h.02c2.76,0,5.57-.16,8.35-.49l675.79-78.43c16.99-1.96,32.04-9.72,42.36-21.8,10.32-12.1,14.61-27,12.07-41.97ZM1296.76,1318.42c-6.68,7.82-16.42,12.85-27.41,14.12l-675.81,78.43c-1.79.21-3.6.31-5.44.31h-.02c-20.34,0-37.79-13.46-40.59-31.29L343.31,75.74c-1.67-10.69,1.67-20.64,9.65-28.74,7.86-7.95,19.08-12.52,30.78-12.52,2.62,0,5.28.23,7.9.68l691.84,116.92c17.09,2.89,30.31,15.04,32.89,30.23l188.24,1108.92c1.63,9.68-1.14,19.35-7.84,27.19Z"/>
    <path class="st9" d="M1296.76,1318.42c-6.68,7.82-16.42,12.85-27.41,14.12l-675.81,78.43c-1.79.21-3.6.31-5.44.31h-.02c-20.34,0-37.79-13.46-40.59-31.29L343.31,75.74c-1.67-10.69,1.67-20.64,9.65-28.74,7.86-7.95,19.08-12.52,30.78-12.52,2.62,0,5.28.23,7.9.68l691.84,116.92c17.09,2.89,30.31,15.04,32.89,30.23l188.24,1108.92c1.63,9.68-1.14,19.35-7.84,27.19Z"/>
  </g>
</svg>